<svg id="Layer_1" data-name="Layer 1" xmlns="http://www.w3.org/2000/svg" viewBox="0 0 1920 1070"><title>hometop</title><path d="M320,1070c73.74,0,109.76-13.5,147.88-27.8,42.21-15.83,85.86-32.2,172.12-32.2s129.9,16.37,172.11,32.2c38.13,14.3,74.14,27.8,147.88,27.8s109.76-13.5,147.89-27.8c42.21-15.83,85.86-32.2,172.12-32.2s129.9,16.37,172.11,32.2c38.13,14.3,74.14,27.8,147.89,27.8s109.76-13.5,147.89-27.8c42.21-15.83,85.85-32.2,172.11-32.2V0H0V1010c86.26,0,129.9,16.37,172.11,32.2C210.24,1056.5,246.25,1070,320,1070Z"/></svg>